<svg width="40" height="40" viewBox="0 0 40 40" fill="none" xmlns="http://www.w3.org/2000/svg">
<path fill-rule="evenodd" clip-rule="evenodd" d="M19.9997 2.58331C10.3809 2.58331 2.58301 10.3812 2.58301 20C2.58301 29.6187 10.3809 37.4166 19.9997 37.4166C29.6184 37.4166 37.4163 29.6187 37.4163 20C37.4163 10.3812 29.6184 2.58331 19.9997 2.58331ZM27.549 17.055C27.688 16.8961 27.7938 16.711 27.8603 16.5106C27.9267 16.3102 27.9524 16.0985 27.9358 15.888C27.9192 15.6776 27.8607 15.4725 27.7637 15.285C27.6667 15.0975 27.5331 14.9313 27.371 14.7961C27.2088 14.6609 27.0212 14.5596 26.8192 14.498C26.6173 14.4364 26.4051 14.4158 26.1951 14.4375C25.9851 14.4591 25.7815 14.5225 25.5964 14.624C25.4112 14.7255 25.2482 14.8629 25.117 15.0283L18.3087 23.1967L14.7858 19.6722C14.4871 19.3838 14.0872 19.2242 13.672 19.2278C13.2569 19.2314 12.8598 19.398 12.5662 19.6915C12.2726 19.9851 12.1061 20.3822 12.1025 20.7973C12.0989 21.2125 12.2585 21.6124 12.5469 21.9111L17.2969 26.6611C17.4525 26.8165 17.6388 26.9379 17.8438 27.0174C18.0489 27.0969 18.2683 27.1328 18.488 27.1228C18.7077 27.1129 18.923 27.0572 19.12 26.9594C19.317 26.8617 19.4915 26.7239 19.6323 26.555L27.549 17.055Z" fill="#162D3A"/>
</svg>
